<svg xmlns="http://www.w3.org/2000/svg" xmlns:xlink="http://www.w3.org/1999/xlink" width="1920" height="1080" viewBox="0 0 1920 1080"><defs><clipPath id="a"><rect width="1920" height="1080" fill="none"/></clipPath></defs><g clip-path="url(#a)"><path d="M972.948,506.781l-13.367,19.972-13.367-19.972-7.856.005v43.727H947.7V525.582l10.131,15.137h3.495l10.131-15.137v24.932H980.8V506.781Z"/><path d="M1022.966,563.544h-7.273v-86.06H903.469v86.06H896.2V470.024h126.77Z"/><rect width="126.77" height="7.459" transform="translate(896.196 604.216)"/><path d="M919.714,589.2v-3.666l3.41.007v-3.209h-3.41v-3.764h7.657v-3.289H916.038v17.208h11.678V589.2Z"/><path d="M968.477,575.277v3.287h5.114v13.919h3.677V578.564h5.114v-3.287Z"/><path d="M904.928,575.276l-5.26,7.859-5.26-7.859-3.091,0v17.206h3.677v-9.811l3.986,5.956h1.375l3.987-5.956v9.811h3.677V575.276Z"/><rect width="3.677" height="17.206" transform="translate(956.781 575.277)"/><path d="M944.618,585.321a4.946,4.946,0,0,0,3.129-4.828c0-1.94-.821-5.2-6.269-5.215l-5.748,0v17.208h3.677v-6.6h1.512l3.743,6.6h4.1Zm-3.423-2.644-1.788,0v-4.181l1.8,0c2.73.006,2.957.986,2.955,1.99C944.157,581.429,943.848,582.682,941.2,582.677Z"/><path d="M1006.331,582.09a7.672,7.672,0,0,0-.537-1.68,8.8,8.8,0,0,0-4.745-4.764,7.543,7.543,0,0,0-1.679-.543,9.717,9.717,0,0,0-3.593-.007,7.629,7.629,0,0,0-1.682.536,8.923,8.923,0,0,0-4.782,4.745,8.9,8.9,0,0,0-.014,6.954,8.967,8.967,0,0,0,8.239,5.5,8.637,8.637,0,0,0,3.478-.7,9.142,9.142,0,0,0,2.853-1.92,9.011,9.011,0,0,0,1.911-2.844,7.7,7.7,0,0,0,.544-1.679,9.784,9.784,0,0,0,.007-3.595Zm-8.8,7.442a5.652,5.652,0,1,1,5.663-5.641A5.653,5.653,0,0,1,997.535,589.532Z"/><path d="M1024.168,575.277v9.808l-6.565-9.808h-3.091v17.206h3.677l0-9.811,6.562,9.811h3.091V575.277Z"/><path d="M1027.845,597a2.162,2.162,0,1,1-2.155-2.1A2.114,2.114,0,0,1,1027.845,597Zm-3.785,0a1.631,1.631,0,0,0,1.642,1.681,1.611,1.611,0,0,0,1.6-1.667,1.625,1.625,0,1,0-3.247-.014Zm1.3,1.1h-.488V596a4.29,4.29,0,0,1,.808-.065,1.315,1.315,0,0,1,.732.155.582.582,0,0,1,.2.462.538.538,0,0,1-.435.487v.026a.62.62,0,0,1,.384.513,1.607,1.607,0,0,0,.155.526h-.527a1.863,1.863,0,0,1-.167-.514c-.037-.231-.166-.333-.435-.333h-.231Zm.012-1.193h.231c.27,0,.488-.09.488-.308,0-.192-.141-.321-.449-.321a1.23,1.23,0,0,0-.27.025Z"/><path d="M1039.133,2H0V-2H1039.133Z" transform="translate(35.022 425.845)"/><path d="M1039.133,2H0V-2H1039.133Z" transform="translate(845.845 654.155)"/><path d="M2,619.133H-2V0H2Z" transform="translate(845.845 425.845)"/><path d="M2,619.133H-2V0H2Z" transform="translate(1074.155 35.022)"/><path d="M1,1080H-1V0H1Z" transform="translate(35.022)"/><path d="M1,1080H-1V0H1Z" transform="translate(1884.978)"/><path d="M1920,1H0V-1H1920Z" transform="translate(0 1044.978)"/><path d="M1920,1H0V-1H1920Z" transform="translate(0 35.022)"/><text transform="translate(1364.942 866.676)" font-size="48" font-family="Muli-Bold, Muli" font-weight="700"><tspan x="-90.072" y="0">Contact</tspan></text><text transform="translate(1481.449 357.034)" font-size="48" font-family="Muli-Bold, Muli" font-weight="700"><tspan x="-112.536" y="0">Approach</tspan></text><text transform="translate(553.128 247.566)" font-size="48" font-family="Muli-Bold, Muli" font-weight="700"><tspan x="-99.096" y="0">Portfolio</tspan></text><text transform="translate(441.066 752.216)" font-size="48" font-family="Muli-Bold, Muli" font-weight="700"><tspan x="-70.488" y="0">About</tspan></text></g></svg>