<svg xmlns="http://www.w3.org/2000/svg" width="176.669" height="33.571" viewBox="0 0 176.669 33.571"><g transform="translate(-54.774 -35.761)"><path d="M91.52,54.219V49.476l4.412.009V45.333H91.52V40.462h9.909V36.205H86.762V58.473h15.112V54.219Z" fill="#fff"/><path d="M154.619,36.206V40.46h6.617V58.472h4.758V40.46h6.617V36.206Z" fill="#fff"/><path d="M72.386,36.205,65.58,46.375,58.773,36.205l-4,0V58.473h4.758v-12.7l5.159,7.708h1.78l5.159-7.708v12.7h4.758V36.205Z" fill="#fff"/><rect width="4.758" height="22.265" transform="translate(139.485 36.206)" fill="#fff"/><path d="M123.746,49.2a6.4,6.4,0,0,0,4.049-6.248c.005-2.51-1.062-6.734-8.113-6.748l-7.438,0V58.473H117V49.93h1.957l4.844,8.543h5.306Zm-4.429-3.421L117,45.778V40.367l2.326,0c3.533.007,3.826,1.276,3.824,2.575C123.149,44.167,122.749,45.789,119.317,45.783Z" fill="#fff"/><path d="M203.6,45.023a9.977,9.977,0,0,0-.7-2.174,11.4,11.4,0,0,0-6.14-6.165,9.815,9.815,0,0,0-2.173-.7,12.173,12.173,0,0,0-2.325-.221,12.032,12.032,0,0,0-2.325.212,9.827,9.827,0,0,0-2.176.693,11.676,11.676,0,0,0-3.691,2.459,11.8,11.8,0,0,0-2.5,3.681,11.532,11.532,0,0,0-.018,9,11.606,11.606,0,0,0,10.662,7.112,11.191,11.191,0,0,0,4.5-.9,11.809,11.809,0,0,0,3.692-2.485,11.65,11.65,0,0,0,2.473-3.68,9.934,9.934,0,0,0,.7-2.172,12.69,12.69,0,0,0,.01-4.652Zm-11.383,9.63a7.314,7.314,0,1,1,7.329-7.3A7.314,7.314,0,0,1,192.221,54.653Z" fill="#fff"/><path d="M226.685,36.206V48.9l-8.5-12.692h-4V58.472h4.758l0-12.7,8.492,12.7h4V36.206Z" fill="#fff"/><rect width="164.011" height="2.761" transform="translate(61.103 66.57)" fill="#fff"/><path d="M231.443,63.183a1.651,1.651,0,1,1-1.645-1.606A1.613,1.613,0,0,1,231.443,63.183Zm-2.889,0a1.244,1.244,0,0,0,1.254,1.282,1.229,1.229,0,0,0,1.224-1.272,1.24,1.24,0,1,0-2.478-.01Zm.99.842h-.373V62.419a3.288,3.288,0,0,1,.617-.049,1,1,0,0,1,.559.118.446.446,0,0,1,.156.352.41.41,0,0,1-.333.372v.02a.474.474,0,0,1,.294.391,1.207,1.207,0,0,0,.118.4h-.4a1.4,1.4,0,0,1-.128-.392c-.028-.176-.126-.254-.332-.254h-.176Zm.009-.91h.176c.206,0,.373-.069.373-.235,0-.147-.108-.245-.343-.245a.89.89,0,0,0-.206.019Z" fill="#fff"/></g></svg>